<svg xmlns="http://www.w3.org/2000/svg" xmlns:xlink="http://www.w3.org/1999/xlink" viewBox="0 0 368.04 368.04"><defs><clipPath id="a"><rect x="118.89" y="188.04" width="129.99" height="129.99" style="fill:none"/></clipPath></defs><title>logo</title><polyline points="322.75 153.25 290.81 352.83 74.85 352.83 46.7 153.25" style="fill:#005c5c;stroke:#f5fafd;stroke-miterlimit:10"/><polyline points="46.7 153.25 76.53 30.14 291.23 30.14 322.75 153.25" style="fill:#4c8c8c;stroke:#f5fafd;stroke-miterlimit:10"/><polygon points="87.87 106.61 279.89 106.61 272.75 74.25 95.44 74.25 87.87 106.61" style="fill:#002e2e"/><path d="M107.2,106.61V30.14c0-14.72,13.12-14.71,15.55-14.7,19.33.07,106.77.37,120.58,0,15.55-.42,17.23,14.29,17.23,14.29v76.89" style="fill:#fff;stroke:#002d4d;stroke-miterlimit:10"/><polygon points="123.62 30.27 244.42 30.27 244.42 61.02 184.02 61.02 184.02 45.64 123.83 45.64 123.62 30.27" style="fill:#002d4d"/><polygon points="138.54 74.25 138.54 90.43 122.54 90.43 122.54 82.34 122.54 74.25 138.54 74.25" style="fill:#fff;stroke:#002d4d;stroke-miterlimit:10"/><polyline points="124.35 82.34 128.16 88.02 136.74 76.6" style="fill:none;stroke:#002d4d;stroke-miterlimit:10"/><rect x="158" y="74.26" width="86.42" height="16.18" style="fill:#002d4d"/><g style="clip-path:url(#a)"><polygon points="190.71 291.67 178.17 291.67 150.8 255.78 150.8 291.67 140.83 291.67 140.83 218.5 150.8 218.5 150.8 252.48 177.61 218.5 189.42 218.5 190.71 226.9 182.37 226.99 160.54 253.27 190.71 291.67" style="fill:#f5fafd"/><g style="clip-path:url(#a)"><path d="M215.68,291.67h11.25l-21.21-34.88a22.45,22.45,0,0,0,6.74-2.71,19.1,19.1,0,0,0,4.93-4.31,17.81,17.81,0,0,0,3-5.54,20.29,20.29,0,0,0,1-6.47,21.82,21.82,0,0,0-1.37-7.87,15,15,0,0,0-4.31-6.07,20.79,20.79,0,0,0-7.53-3.92,38,38,0,0,0-11-1.4h-9.63v7.95l.8.45H197q6.68,0,10.33,2.91T211,238.6a12.44,12.44,0,0,1-1.09,5.35,11,11,0,0,1-3.08,3.91,13.48,13.48,0,0,1-4.82,2.41,23,23,0,0,1-6.35.81h-8.06v8l9.3,0" style="fill:#f5fafd"/></g></g></svg>